<svg data-name="Layer 1" xmlns="http://www.w3.org/2000/svg" width="512" viewBox="0 0 512 512" height="512" id="Layer_1"><g fill-rule="evenodd"><path fill="#46cc6b" d="m256 16c-132.336 0-240 107.664-240 240s107.664 240 240 240 240-107.661 240-240-107.664-240-240-240z"></path><path fill="#179c5f" d="m405.011 444c.159-.127.318-.256.476-.384l.01-.008.01-.008.01-.008.01-.009a242.024 242.024 0 0 0 27.87-26.118l.008.008q2.265-2.487 4.459-5.04 3.762-4.368 7.315-8.917l.193-.248.006-.009.013-.016.006-.009.007-.008q6.3-8.092 11.915-16.721 1.72-2.646 3.378-5.339l.465-.76.1-.16.051-.084.009.01c.385-.634.76-1.274 1.135-1.914l.023-.039a239.7 239.7 0 0 0 11.351-21.519v-.009l.022-.049q.376-.8.745-1.605 3.582-7.871 6.6-16.034 1.447-3.915 2.753-7.9l.053-.164-110.735-125.234.25.3.243.308.238.318.231.327.225.338 27.894 43.284h-22.586l-66.428-73.164.436.5.41.522.386.543.359.561.333.578.306.6.277.612.248.627.217.642.187.656.154.668.122.68.088.691.053.7.019.711v83.085h-78.058l-63.141-61.762-.31-.282-.337-.252-.361-.219-.383-.184-.4-.147-.42-.108-.434-.066-.447-.023h-17.83v8.75h-24.854l-.623-.022-.606-.067-.584-.107-.56-.148-.534-.184-.5-.219-.47-.252-.433-.283-.393-.31 30.347 28.584h-.224l-16.464-15.506.283.31.252.337.219.361.184.382.147.4.108.419.066.435.023.447-.023.448-.066.434-.108.419-.147.4-.184.382-.219.361-.252.337-.283.311-.31.282-.337.252-.361.219-.382.184-.4.147-.419.108-.434.066-.448.023h-25.445l-.448-.023-.434-.066-.42-.108-.4-.147-.383-.184-.361-.219-.337-.252-.311-.282 35 32.148h-19.782l-.581-.023-.565-.066-.544-.108-.523-.147-.5-.185-.469-.219-.437-.252-.4-.282-.368-.311 52.011 47.08-.114.864-.131 1.595h-1.246l-.71-.018-.7-.053-.691-.088-.68-.122-.668-.155-.655-.186-.643-.218-.627-.248-.612-.277-.6-.306-.579-.333-.561-.36-.542-.386-.523-.41-.5-.435 187.358 168.519.769-.315.028-.011c.8-.327 1.593-.654 2.384-.992.247-.105.49-.217.736-.323q1.245-.536 2.482-1.086l.023-.01.024-.01c.243-.106.485-.212.727-.32q5.383-2.414 10.622-5.085l.407-.207c.189-.1.378-.2.566-.294h.006.008.011l.015-.007.014-.008h.009l.139-.071.134-.071q1.292-.668 2.573-1.351l.03-.015.05-.027.01-.006.06-.032h.01l.08-.043.031-.016.049-.026.011-.006.061-.033h.008l.052-.028.027-.015.033-.017.047-.025.013-.008.061-.032h.006l.054-.029.026-.014.034-.018.06-.033.06-.032.055-.029.025-.013.079-.043.017-.009.06-.033.08-.043.037-.021.06-.032.455-.247h.007l.01-.006.01-.006h.01l.01-.006h.01l.01-.006.807-.44.236-.131.012-.007.015-.008.014-.009q1.853-1.019 3.682-2.07l.028-.016.1-.055.11-.063.013-.008q2.226-1.276 4.422-2.6 2.328-1.405 4.622-2.864l.016-.01.016-.009q.2-.123.394-.248l.113-.072c.31-.2.618-.4.926-.6l.018-.011.024-.015.023-.015q9.945-6.422 19.2-13.772z"></path><g fill="#fff"><path d="m177.014 211.125a4.375 4.375 0 0 1 -4.375 4.374h-17.828v26.992h42.2a4.374 4.374 0 1 1 0 8.748h-42.2v5.33h8.622a4.375 4.375 0 1 1 0 8.75h-8.622v4.472h162.12v-83.084a13.838 13.838 0 0 0 -13.818-13.825h-134.478a13.838 13.838 0 0 0 -13.824 13.823v20.043h17.828a4.376 4.376 0 0 1 4.375 4.376zm-36.825 18.953a4.375 4.375 0 0 0 -4.375-4.375h-25.439a4.375 4.375 0 1 0 0 8.75h25.439a4.375 4.375 0 0 0 4.375-4.375zm176.742 48.463h-162.12v20.9a13.839 13.839 0 0 0 13.824 13.824h1.246a32.68 32.68 0 0 1 65.249 0h81.8v-34.724zm-90.49 36.643a23.936 23.936 0 1 1 -23.935-23.936 23.962 23.962 0 0 1 23.935 23.936zm-19.56-.184v.364a4.375 4.375 0 1 1 -8.75 0v-.364a4.375 4.375 0 0 1 8.75 0zm159.169-23.752a23.935 23.935 0 1 0 23.931 23.936 23.963 23.963 0 0 0 -23.931-23.936zm4.375 23.752v.364a4.375 4.375 0 1 1 -8.75 0v-.364a4.375 4.375 0 0 1 8.75 0zm-37-1.736h-7.744v-53.935h80.319v50.639a3.3 3.3 0 0 1 -3.3 3.3h-4.025a32.681 32.681 0 0 0 -65.25 0zm-7.744-62.685h76.669l-27.894-43.287a11.517 11.517 0 0 0 -10.037-5.595h-38.738v48.883zm-170.87 5.99v8.75h-32.311c-3.14 0-5.684-1.96-5.684-4.375s2.545-4.376 5.684-4.376zm-22.289-9.7c0-2.417 3.225-4.376 7.2-4.376h15.086v8.749h-15.087c-3.978 0-7.2-1.96-7.2-4.375zm-2.565-31.369c-3.369 0-6.1-1.96-6.1-4.374s2.73-4.376 6.1-4.376h24.854v8.75z"></path><path d="m177.014 211.125a4.375 4.375 0 0 1 -4.375 4.374h-17.828v26.992h42.2a4.374 4.374 0 1 1 0 8.748h-42.2v5.33h8.622a4.375 4.375 0 1 1 0 8.75h-8.622v4.472h162.12v-83.084a13.838 13.838 0 0 0 -13.818-13.825h-134.478a13.838 13.838 0 0 0 -13.824 13.823v20.043h17.828a4.376 4.376 0 0 1 4.375 4.376zm-36.825 18.953a4.375 4.375 0 0 0 -4.375-4.375h-25.439a4.375 4.375 0 1 0 0 8.75h25.439a4.375 4.375 0 0 0 4.375-4.375zm176.742 48.463h-162.12v20.9a13.839 13.839 0 0 0 13.824 13.824h1.246a32.68 32.68 0 0 1 65.249 0h81.8v-34.724zm-90.49 36.643a23.936 23.936 0 1 1 -23.935-23.936 23.962 23.962 0 0 1 23.935 23.936zm-19.56-.184v.364a4.375 4.375 0 1 1 -8.75 0v-.364a4.375 4.375 0 0 1 8.75 0zm159.169-23.752a23.935 23.935 0 1 0 23.931 23.936 23.963 23.963 0 0 0 -23.931-23.936zm4.375 23.752v.364a4.375 4.375 0 1 1 -8.75 0v-.364a4.375 4.375 0 0 1 8.75 0zm-37-1.736h-7.744v-53.935h80.319v50.639a3.3 3.3 0 0 1 -3.3 3.3h-4.025a32.681 32.681 0 0 0 -65.25 0zm-7.744-62.685h76.669l-27.894-43.287a11.517 11.517 0 0 0 -10.037-5.595h-38.738v48.883zm-170.87 5.99v8.75h-32.311c-3.14 0-5.684-1.96-5.684-4.375s2.545-4.376 5.684-4.376zm-22.289-9.7c0-2.417 3.225-4.376 7.2-4.376h15.086v8.749h-15.087c-3.978 0-7.2-1.96-7.2-4.375zm-2.565-31.369c-3.369 0-6.1-1.96-6.1-4.374s2.73-4.376 6.1-4.376h24.854v8.75z"></path></g></g></svg>