<svg class="" xml:space="preserve" style="enable-background:new 0 0 512 512" viewBox="0 0 512 512" y="0" x="0" height="512" width="512" xmlns:xlink="http://www.w3.org/1999/xlink" version="1.1" xmlns="http://www.w3.org/2000/svg"><g><g fill-rule="evenodd"><path class="" data-original="#ff5a54" opacity="1" d="M256 0C114.841 0 0 114.841 0 256s114.841 256 256 256 256-114.84 256-256S397.16 0 256 0z" fill="#47cc6b"></path><path class="" data-original="#db3a3c" opacity="1" d="m469.441 397.183.039-.059.406-.614.269-.41.3-.458.024-.037.506-.777.032-.049.1-.153.487-.757.132-.2.535-.84.028-.043q2.827-4.457 5.476-9.034l.006.007a255.516 255.516 0 0 0 14.32-28.811q.6-1.433 1.188-2.875l.028-.071.057-.14.021-.052.008-.019.028-.07.029-.07.028-.071.023-.056.006-.014.028-.071.028-.07.029-.07.085-.212.028-.07.226-.564q2.755-6.925 5.114-14.044L311.845 125.7l2.464 2.844 2.328 2.961 2.187 3.073 2.04 3.18 1.888 3.281 1.733 3.378 1.571 3.47 1.405 3.557 1.233 3.639 1.058 3.716.876 3.788.69 3.855.5 3.917.015.2-31.225-34.652-2.093-2.195-2.195-2.093-2.293-1.988-2.386-1.877-2.477-1.763-2.563-1.646-2.645-1.523-2.723-1.4-2.8-1.267-2.867-1.133-2.934-.995-3-.852-3.054-.707-3.107-.557-3.158-.4-3.2-.245-3.246-.082v.007l-3.245.082-3.2.244-3.157.4-3.108.556-3.053.707-3 .852-2.934.995-2.867 1.132-2.8 1.267-2.723 1.4-2.646 1.522-2.563 1.645-2.477 1.763-2.387 1.877-2.293 1.987-2.194 2.093-2.093 2.2-1.987 2.293-1.877 2.387-1.763 2.477-1.645 2.563-1.522 2.646-1.4 2.723-1.267 2.8-1.132 2.868-1 2.934-.852 3-.707 3.054-.556 3.108-.4 3.158-.245 3.2-.082 3.246v49.745l48.74 47.38-.586.376-1.2.857-1.16.912-1.113.965-1.066 1.017-1.017 1.067-.964 1.113-.912 1.16-.856 1.2-.8 1.245-.739 1.285-.679 1.323-.615 1.359-.55 1.392-.483 1.425-.414 1.454-.343 1.483-.27 1.509-.2 1.533-.118 1.555-.04 1.576.028 1.333.085 1.319.141 1.3.194 1.287.247 1.268.3 1.25.35 1.23.4 1.208.447 1.185.494 1.162.54 1.137.585 1.111.628 1.083.67 1.055.712 1.025.752 1 .79.963.828.929.865.9.9.86L248.4 336.2v13.687l.039.776.115.753.187.727.256.7.319.664.381.627.437.586.49.54L298.941 400H178.25l-1.482-.038-1.463-.112-1.443-.183-1.419-.255-1.4-.322-1.368-.39-1.34-.454-1.31-.517-1.277-.579-1.244-.638-1.208-.7-1.171-.751-1.125-.801-1.09-.858 136 115.482c2.7-.425 5.39-.9 8.064-1.411a254.263 254.263 0 0 0 79.265-29.407l.012.011c.551-.318 1.1-.646 1.642-.971l.031-.018.031-.019.031-.018q4.19-2.454 8.276-5.058 2.723-1.735 5.394-3.544l.123-.083.114-.077.114-.077.113-.077.114-.077.227-.155.114-.077.114-.078q1.585-1.079 3.155-2.18.974-.684 1.941-1.378 1.506-1.08 2.993-2.183l.02-.015.126-.093 1.344-1 .147-.11.248-.186.093-.071q7.01-5.277 13.641-11.011.789-.683 1.566-1.377l.049-.044q4.059-3.575 7.965-7.315a257.793 257.793 0 0 0 36.464-43.602z" fill="#199c60"></path><path class="" data-original="#ffffff" opacity="1" d="M256 316.778a15.485 15.485 0 1 1 15.486-15.484A15.5 15.5 0 0 1 256 316.778zm0-46.166a30.682 30.682 0 0 0-7.595 60.407v18.867a7.6 7.6 0 1 0 15.19 0v-18.873A30.674 30.674 0 0 0 256 270.62zm-2.13-155.429a63.24 63.24 0 0 1 63.162 63.178v49.744H190.705V178.36a63.237 63.237 0 0 1 63.165-63.17zm79.872 112.922h-1.52V178.36a78.354 78.354 0 1 0-156.708 0v49.871a28.9 28.9 0 0 0-26.114 28.727v114.187A28.887 28.887 0 0 0 178.25 400h155.492a28.888 28.888 0 0 0 28.86-28.85V256.958a28.889 28.889 0 0 0-28.86-28.853z" fill="#ffffff"></path></g></g></svg>