<svg data-sanitized-data-name="Layer 1" data-name="Layer 1" xmlns="http://www.w3.org/2000/svg" width="512" viewBox="0 0 512 512" height="512" id="Layer_1"><circle r="256" fill="#46cc6b" cy="256" cx="256"></circle><g fill-rule="evenodd"><path fill="#179c5f" d="m418.223 454.039q-.97.8-1.95 1.576l-.045.037-.008.007q-3.991 3.206-8.111 6.255-2.149 1.592-4.33 3.143c-.32.227-.646.445-.967.671-.3.209-.6.414-.9.621q-6.024 4.187-12.289 8.038l-.007-.007a254.937 254.937 0 0 1 -48.146 22.983l-150.446-133.313h80.695l-109.757-102.713 11.931-11.777-28.268-28.637-.249-.238-.164-.167-.154-.174-.145-.183-.137-.19-.125-.2-.116-.2-.1-.211-.095-.218-.082-.223-.071-.228-.059-.233-.046-.239-.034-.242-.021-.246-.006-.251.023-.457.067-.442.11-.429.151-.41.188-.39.224-.367.256-.344.289-.318.316-.288.344-.257.369-.223.39-.187.41-.151.428-.11.443-.068.456-.023h15.5l-18.621-18.03-.309-.336-.268-.358-.227-.377-.187-.393-.145-.407-.106-.416-.064-.423-.024-.427.016-.426.05-.423.1-.419.139-.409.18-.4.22-.381.262-.361.3-.342 28.587-28.96 52.8 53.286h95.42l1.725.023 1.715.066 1.7.108 1.693.152 1.682.193 1.667.236 1.656.277 1.642.317 1.628.356 1.613.4 1.6.435 1.582.474 1.566.512 1.549.547 1.532.587 1.514.621 1.5.658 1.476.692 1.457.727 1.437.761 1.417.8 1.395.828 1.374.859 1.351.892 1.329.923 1.3.954 1.282.985 1.257 1.014 1.233 1.043 1.207 1.072 1.18 1.1 1.155 1.127 1.128 1.156 1.1 1.18 33.879 37.34-.072-.806-.242-2.1-.293-2.085-.345-2.069-.4-2.053-.445-2.034-.5-2.016-.543-2-.592-1.978-.638-1.957-.685-1.935-.731-1.914-.776-1.892-.821-1.868-.864-1.845-.908-1.821-.95-1.8-.992-1.77-1.034-1.744-1.073-1.715-1.115-1.689-1.152-1.66-1.191-1.63-1.229-1.6-1.267-1.572-1.3-1.538-1.339-1.508 110.8 124.194q-3.954 10.258-8.744 20.08-2.829 5.8-5.938 11.425l-.156.283-.157.283-.157.282-.157.282-.066.119-.092.163-.316.563-.029.052-.289.51-.083.146-.251.441-.26.454-.444.773-.032.055-.229.394-.286.492-.3.517-.112.191a257.171 257.171 0 0 1 -42.319 53.934l-.629.61-.348.336q-.461.444-.922.884l-.219.209q-6.845 6.522-14.174 12.537z"></path><path fill="#fff" d="m381.363 339.413a83.889 83.889 0 0 0 -59.251-143.14h-173.632v-.013a4.451 4.451 0 0 1 -3.174-7.572l28.587-28.961-11.931-11.777-55.962 56.693 55.962 56.694 11.931-11.778-28.345-28.716a4.464 4.464 0 0 1 2.932-7.83h173.632a67.149 67.149 0 0 1 0 134.3h-131.087v16.74h131.087a83.624 83.624 0 0 0 59.251-24.64z"></path></g></svg>